<svg width="490" height="160" viewBox="0 0 490 160" fill="none" xmlns="http://www.w3.org/2000/svg">
<path d="M11.0533 135.175C7.66999 135.175 5.97832 131.442 5.97832 123.975C5.97832 110.442 5.33665 88.8 4.05332 59.05C2.88665 29.3 1.77832 13.6083 0.728321 11.975C0.728321 8.70833 2.01165 6.2 4.57832 4.44999C5.51165 3.86666 6.79499 3.39999 8.42832 3.05C10.1783 2.58333 11.7533 2.35 13.1533 2.35C13.8533 2.23333 15.3117 2.17499 17.5283 2.17499C20.2117 2.17499 22.1367 2.64166 23.3033 3.57499C24.47 4.39166 25.0533 5.90833 25.0533 8.125C25.0533 9.40833 24.5867 10.4 23.6533 11.1C22.72 11.6833 21.5533 11.975 20.1533 11.975L18.4033 11.8H15.9533C12.6867 11.8 11.0533 12.4417 11.0533 13.725C11.0533 19.7917 11.4617 27.725 12.2783 37.525C12.9783 45.6917 13.445 53.45 13.6783 60.8C14.495 60.5667 16.0117 60.2167 18.2283 59.75C20.5617 59.1667 22.3117 58.875 23.4783 58.875C24.7617 58.875 25.87 59.4583 26.8033 60.625C27.7367 61.675 28.2033 62.9 28.2033 64.3C28.2033 65.9333 27.445 67.1 25.9283 67.8C25.695 67.9167 25.1117 68.2083 24.1783 68.675C23.3617 69.025 22.2533 69.2583 20.8533 69.375C19.8033 69.4917 18.0533 69.6667 15.6033 69.9H13.6783C13.6783 76.9 14.2617 86.4083 15.4283 98.425C16.4783 111.025 17.0033 120.533 17.0033 126.95L16.8283 127.65L16.6533 128C16.77 128.467 16.8283 129.225 16.8283 130.275C16.8283 131.792 16.3033 133.017 15.2533 133.95C14.2033 134.767 12.8033 135.175 11.0533 135.175ZM248.992 135C247.125 135 245.725 134.65 244.792 133.95C243.975 133.25 243.567 132.083 243.567 130.45V107.525C242.05 106.475 239.192 105.542 234.992 104.725C230.792 103.908 226.825 103.383 223.092 103.15C221.808 105.6 220.875 108.575 220.292 112.075L219.592 115.575C219.475 116.392 219.125 118.2 218.542 121C217.958 123.8 217.317 126.25 216.617 128.35C215.917 130.333 215.217 131.908 214.517 133.075C210.083 133.075 207.517 131.908 206.817 129.575C208.1 127.708 209.558 122.225 211.192 113.125L216.967 81.1C219.533 65.9333 221.867 52.9833 223.967 42.25C226.183 31.5167 228.517 22.5333 230.967 15.3C233.65 7.25 236.217 3.225 238.667 3.225C241.117 3.225 242.983 3.69166 244.267 4.62499C244.267 9.29166 245.375 20.55 247.592 38.4C249.925 55.9 251.092 67.8583 251.092 74.275C251.092 80.4583 251.733 89.325 253.017 100.875C254.183 112.658 254.767 122.05 254.767 129.05C254.767 133.017 252.842 135 248.992 135ZM239.892 97.375C240.825 97.375 241.992 97.2 243.392 96.85C243.042 91.7167 242.458 85.3583 241.642 77.775C238.958 51.4083 237.617 35.25 237.617 29.3V27.9C236.45 29.0667 234.817 34.375 232.717 43.825C230.733 53.1583 228.867 63.1917 227.117 73.925C225.367 84.6583 224.433 91.775 224.317 95.275C229.217 96.675 234.408 97.375 239.892 97.375ZM482.023 159.15C480.04 159.15 477.59 158.333 474.673 156.7V156.525C471.523 155.125 469.307 152.558 468.023 148.825C467.207 145.792 466.448 142.233 465.748 138.15C465.282 135.35 464.99 133.717 464.873 133.25H457.698C451.515 129.167 446.965 123.8 444.048 117.15C442.765 114.35 441.715 111.142 440.898 107.525C440.082 103.908 439.557 100.35 439.323 96.85C439.09 94.75 438.973 91.1333 438.973 86L439.323 71.65C439.673 65.35 439.848 60.625 439.848 57.475L439.673 51.875V45.05C439.673 38.05 439.907 32.45 440.373 28.25C441.073 22.4167 442.298 17.1083 444.048 12.325C445.915 7.30833 448.715 3.80833 452.448 1.82499C454.432 0.774993 456.59 0.249993 458.923 0.249993C462.073 0.249993 464.99 0.891658 467.673 2.17499C470.357 3.45833 472.69 5.20833 474.673 7.42499C477.823 11.1583 480.39 17.225 482.373 25.625C483.773 33.2083 484.59 40.9083 484.823 48.725C484.94 51.175 484.998 55.2 484.998 60.8V70.25C484.882 72.9333 484.823 75.7333 484.823 78.65V86.525C484.823 97.025 484.123 105.192 482.723 111.025C481.44 116.858 478.582 122.867 474.148 129.05L474.848 132.55C475.548 137.1 476.307 140.658 477.123 143.225C478.29 147.425 479.748 149.525 481.498 149.525H482.198C484.298 149.525 485.932 149.642 487.098 149.875C488.848 150.458 489.723 151.742 489.723 153.725C489.723 157.342 487.157 159.15 482.023 159.15ZM463.998 128C464.815 126.483 466.39 125.725 468.723 125.725V125.9C473.04 121.933 475.198 115.633 475.198 107V59.925C475.198 52.4583 475.023 46.2167 474.673 41.2C474.207 34.6667 473.157 28.5417 471.523 22.825C470.707 19.9083 469.657 17.5167 468.373 15.65C467.207 13.7833 465.69 12.2083 463.823 10.925C461.84 9.64166 459.74 8.99999 457.523 8.99999C455.423 8.99999 453.673 12.0333 452.273 18.1C449.94 27.3167 448.482 42.3667 447.898 63.25C447.665 71.4167 447.548 76.725 447.548 79.175C447.548 84.1917 447.84 89.9667 448.423 96.5C449.007 103.617 450.523 110.5 452.973 117.15C454.14 120.417 455.657 123.042 457.523 125.025C459.39 126.892 461.548 127.942 463.998 128.175V128Z" fill="#4BA492"/>
</svg>
