<svg width="157" height="157" viewBox="0 0 157 157" fill="none" xmlns="http://www.w3.org/2000/svg">
<rect width="157" height="157" rx="35" fill="#5EF978"/>
<g clip-path="url(#clip0_101_356)">
<path d="M123.025 102.012C119.637 95.6078 107.874 88.6641 107.356 88.3605C105.844 87.5001 104.267 87.0446 102.791 87.0446C100.596 87.0446 98.7996 88.0501 97.7115 89.8788C95.9907 91.9369 93.8567 94.3426 93.3388 94.7154C89.3305 97.4348 86.1926 97.1261 82.7208 93.6543L63.3439 74.2757C59.894 70.8258 59.5769 67.6492 62.2778 63.6628C62.6557 63.1415 65.0613 61.0058 67.1194 59.2834C68.4319 58.5023 69.3328 57.3416 69.7275 55.9178C70.2522 54.0233 69.8659 51.7948 68.6276 49.6236C68.3358 49.1243 61.3887 37.3592 54.9883 33.9734C53.7939 33.3407 52.4476 33.0067 51.098 33.0067C48.8746 33.0067 46.7827 33.8738 45.2104 35.4444L40.9288 39.7243C34.1572 46.4943 31.706 54.1684 33.6393 62.5325C35.2521 69.5032 39.952 76.9209 47.611 84.5782L72.4183 109.386C82.1118 119.079 91.3532 123.995 99.886 123.995C99.886 123.995 99.886 123.995 99.8877 123.995C106.163 123.995 112.014 121.328 117.272 116.069L121.552 111.789C124.153 109.19 124.744 105.259 123.025 102.012Z" fill="white"/>
</g>
<defs>
<clipPath id="clip0_101_356">
<rect x="33" y="33" width="91" height="91" rx="35" fill="white"/>
</clipPath>
</defs>
</svg>
