<svg width="50" height="50" viewBox="0 0 50 50" fill="none" xmlns="http://www.w3.org/2000/svg">
<g clip-path="url(#clip0_102_44)">
<path d="M48.892 27.9173L47.9519 26.6298C47.1753 25.5671 47.1651 24.1263 47.9212 23.0432L48.8409 21.7455C49.9036 20.2332 49.4131 18.1385 47.7782 17.2598L46.3783 16.5036C45.2134 15.8803 44.5799 14.5826 44.7945 13.2849L45.0602 11.7113C45.3667 9.8925 44.0077 8.20651 42.1582 8.13499L40.5642 8.06346C39.2461 8.01237 38.1119 7.11317 37.744 5.84613L37.3046 4.31341C36.7937 2.53546 34.8421 1.61583 33.1356 2.35153L31.6744 2.98506C30.4585 3.50618 29.0586 3.19964 28.1696 2.20848L27.1069 1.02318C25.8706 -0.356268 23.7145 -0.335832 22.4986 1.05383L21.4563 2.25957C20.5878 3.25073 19.1879 3.58792 17.9719 3.08724L16.5005 2.48437C14.7941 1.77932 12.8527 2.7296 12.3622 4.51777L11.9433 6.05049C11.6061 7.33797 10.4923 8.24739 9.17415 8.31891L7.58012 8.41088C5.73065 8.51306 4.40229 10.2195 4.73949 12.0281L5.0256 13.5915C5.26061 14.8892 4.64753 16.1971 3.49288 16.8306L2.10321 17.6072C0.488752 18.5064 0.0187188 20.6113 1.11206 22.1032L2.05212 23.3906C2.8287 24.4533 2.83892 25.8941 2.08278 26.9772L1.16315 28.2749C0.100464 29.7872 0.590933 31.8819 2.22583 32.7606L3.62571 33.5168C4.79058 34.1401 5.4241 35.4378 5.20952 36.7355L4.93363 38.2989C4.62709 40.1177 5.9861 41.8037 7.83558 41.8752L9.4296 41.9467C10.7477 41.9978 11.882 42.897 12.2498 44.1641L12.6892 45.6968C13.2001 47.4747 15.1517 48.3944 16.8582 47.6587L18.3194 47.0251C19.5353 46.504 20.9352 46.8106 21.8242 47.7915L22.8869 48.9768C24.1233 50.3562 26.2793 50.3358 27.4952 48.9461L28.5375 47.7404C29.406 46.7492 30.8059 46.412 32.0219 46.9127L33.4933 47.5156C35.1997 48.2207 37.1411 47.2704 37.6316 45.4822L38.0505 43.9495C38.398 42.6824 39.522 41.773 40.8401 41.6913L42.4341 41.5993C44.2836 41.4971 45.612 39.7907 45.2748 37.9821L44.9886 36.4187C44.7536 35.121 45.3667 33.8131 46.5214 33.1796L47.911 32.403C49.5153 31.5243 49.9751 29.4091 48.892 27.9173ZM25.002 41.1497C16.0918 41.1497 8.86761 33.9255 8.86761 25.0153C8.86761 16.1051 16.0918 8.88091 25.002 8.88091C33.9122 8.88091 41.1364 16.1051 41.1364 25.0153C41.1364 33.9255 33.9122 41.1497 25.002 41.1497Z" fill="#00B833"/>
<path d="M22.938 25.4444L21.5075 24.0037C20.6594 23.1453 19.2697 23.1453 18.4114 23.9935C17.5531 24.8416 17.5531 26.2312 18.4012 27.0895L19.8317 28.5303L21.4257 30.1243C22.2534 30.9622 23.6022 30.9622 24.4401 30.1345L26.0341 28.5507L31.5928 23.0227C32.4511 22.1746 32.4511 20.785 31.603 19.9266C30.7549 19.0683 29.3652 19.0683 28.5069 19.9164L22.938 25.4444Z" fill="#00B833"/>
</g>
<defs>
<clipPath id="clip0_102_44">
<rect width="50" height="50" fill="white"/>
</clipPath>
</defs>
</svg>
