<svg width="50" height="50" viewBox="0 0 50 50" fill="none" xmlns="http://www.w3.org/2000/svg">
<path d="M25 50C11.25 50 0 38.75 0 25C0 11.25 11.25 0 25 0C38.75 0 50 11.25 50 25C50 38.75 38.75 50 25 50ZM25 4.16667C13.5417 4.16667 4.16667 13.5417 4.16667 25C4.16667 36.4583 13.5417 45.8333 25 45.8333C36.4583 45.8333 45.8333 36.4583 45.8333 25C45.8333 13.5417 36.4583 4.16667 25 4.16667Z" fill="#C51111"/>
<path d="M16.6664 35.4167C16.0414 35.4167 15.6247 35.2084 15.2081 34.7917C14.3747 33.9584 14.3747 32.7084 15.2081 31.875L31.8747 15.2084C32.7081 14.375 33.9581 14.375 34.7914 15.2084C35.6247 16.0417 35.6247 17.2917 34.7914 18.125L18.1247 34.7917C17.7081 35.2084 17.2914 35.4167 16.6664 35.4167Z" fill="#C51111"/>
<path d="M33.3331 35.4167C32.7081 35.4167 32.2914 35.2084 31.8747 34.7917L15.2081 18.125C14.3747 17.2917 14.3747 16.0417 15.2081 15.2084C16.0414 14.375 17.2914 14.375 18.1247 15.2084L34.7914 31.875C35.6247 32.7084 35.6247 33.9584 34.7914 34.7917C34.3747 35.2084 33.9581 35.4167 33.3331 35.4167Z" fill="#C51111"/>
</svg>
