<svg width="50" height="50" viewBox="0 0 50 50" fill="none" xmlns="http://www.w3.org/2000/svg">
<path d="M25 50C11.25 50 0 38.75 0 25C0 11.25 11.25 0 25 0C38.75 0 50 11.25 50 25C50 38.75 38.75 50 25 50ZM25 4.16667C13.5417 4.16667 4.16667 13.5417 4.16667 25C4.16667 36.4583 13.5417 45.8333 25 45.8333C36.4583 45.8333 45.8333 36.4583 45.8333 25C45.8333 13.5417 36.4583 4.16667 25 4.16667Z" fill="#9B9797"/>
<path d="M16.6666 35.4167C16.0416 35.4167 15.6249 35.2084 15.2083 34.7917C14.3749 33.9584 14.3749 32.7084 15.2083 31.875L31.8749 15.2084C32.7083 14.375 33.9583 14.375 34.7916 15.2084C35.6249 16.0417 35.6249 17.2917 34.7916 18.125L18.1249 34.7917C17.7083 35.2084 17.2916 35.4167 16.6666 35.4167Z" fill="#9B9797"/>
<path d="M33.3333 35.4167C32.7083 35.4167 32.2916 35.2084 31.8749 34.7917L15.2083 18.125C14.3749 17.2917 14.3749 16.0417 15.2083 15.2084C16.0416 14.375 17.2916 14.375 18.1249 15.2084L34.7916 31.875C35.6249 32.7084 35.6249 33.9584 34.7916 34.7917C34.3749 35.2084 33.9583 35.4167 33.3333 35.4167Z" fill="#9B9797"/>
</svg>
