<svg width="24" height="24" viewBox="0 0 24 24" fill="none" xmlns="http://www.w3.org/2000/svg">
<g clip-path="url(#clip0_105_2)">
<path d="M17.4719 14.382C17.1749 14.233 15.7139 13.515 15.4419 13.415C15.1689 13.316 14.9709 13.267 14.7719 13.565C14.5749 13.862 14.0049 14.531 13.8319 14.729C13.6589 14.928 13.4849 14.952 13.1879 14.804C12.8909 14.654 11.9329 14.341 10.7979 13.329C9.91488 12.541 9.31789 11.568 9.14489 11.27C8.97189 10.973 9.12688 10.812 9.27488 10.664C9.40888 10.531 9.57288 10.317 9.72088 10.144C9.86988 9.96998 9.91888 9.84598 10.0189 9.64698C10.1179 9.44898 10.0689 9.27598 9.99389 9.12698C9.91889 8.97798 9.32488 7.51498 9.07788 6.91998C8.83588 6.34098 8.59088 6.41998 8.40889 6.40998C8.23589 6.40198 8.03788 6.39998 7.83888 6.39998C7.64088 6.39998 7.31888 6.47398 7.04688 6.77198C6.77488 7.06898 6.00688 7.78798 6.00688 9.25098C6.00688 10.713 7.07188 12.126 7.21988 12.325C7.36888 12.523 9.31588 15.525 12.2969 16.812C13.0059 17.118 13.5589 17.301 13.9909 17.437C14.7029 17.664 15.3509 17.632 15.8619 17.555C16.4329 17.47 17.6199 16.836 17.8679 16.142C18.1159 15.448 18.1159 14.853 18.0409 14.729C17.9669 14.605 17.7689 14.531 17.4709 14.382H17.4719ZM12.0499 21.785H12.0459C10.2757 21.7851 8.53796 21.3092 7.01488 20.407L6.65388 20.193L2.91288 21.175L3.91088 17.527L3.67588 17.153C2.68632 15.5772 2.16283 13.7537 2.16588 11.893C2.16688 6.44298 6.60188 2.00898 12.0539 2.00898C14.6939 2.00898 17.1759 3.03898 19.0419 4.90698C19.9626 5.8236 20.6923 6.91371 21.1889 8.11422C21.6855 9.31474 21.939 10.6018 21.9349 11.901C21.9319 17.351 17.4979 21.785 12.0499 21.785V21.785ZM20.4629 3.48798C19.3611 2.3789 18.0501 1.49952 16.606 0.90078C15.1618 0.302044 13.6132 -0.00413728 12.0499 -2.00576e-05C5.49488 -2.00576e-05 0.159885 5.33498 0.156885 11.892C0.156885 13.988 0.703885 16.034 1.74488 17.837L0.0568848 24L6.36188 22.346C8.10548 23.2959 10.0593 23.7937 12.0449 23.794H12.0499C18.6039 23.794 23.9399 18.459 23.9429 11.901C23.9477 10.3383 23.6426 8.79008 23.0453 7.34601C22.448 5.90195 21.5702 4.59065 20.4629 3.48798V3.48798Z" fill="white"/>
</g>
<defs>
<clipPath id="clip0_105_2">
<rect width="24" height="24" fill="white"/>
</clipPath>
</defs>
</svg>
